<?xml version="1.0" encoding="utf-8"?>
<!-- Generator: Adobe Illustrator 25.2.3, SVG Export Plug-In . SVG Version: 6.00 Build 0)  -->
<svg version="1.1" id="Capa_1" xmlns="http://www.w3.org/2000/svg" xmlns:xlink="http://www.w3.org/1999/xlink" x="0px" y="0px"
	 viewBox="0 0 512 512" style="enable-background:new 0 0 512 512;" xml:space="preserve">
<style type="text/css">
	.st0{fill:#133F6F;stroke:#133F6F;stroke-width:10;stroke-miterlimit:10;}
</style>
<g>
	<g>
		<g>
			<path class="st0" d="M450.1,236H61.9c-9,0-16.4,9-16.4,20s7.4,20,16.4,20h388.1c9,0,16.4-9,16.4-20S459.1,236,450.1,236z"/>
		</g>
	</g>
	<g>
		<g>
			<path class="st0" d="M450.1,76H61.9c-9,0-16.4,9-16.4,20s7.4,20,16.4,20h388.1c9,0,16.4-9,16.4-20S459.1,76,450.1,76z"/>
		</g>
	</g>
	<g>
		<g>
			<path class="st0" d="M450.1,396H61.9c-9,0-16.4,9-16.4,20s7.4,20,16.4,20h388.1c9,0,16.4-9,16.4-20S459.1,396,450.1,396z"/>
		</g>
	</g>
</g>
</svg>
